<svg xmlns="http://www.w3.org/2000/svg" viewBox="0 0 1280 720" role="img" aria-label="Hello Cafe desktop orders dashboard">
  <defs>
    <linearGradient id="bg" x1="0" y1="0" x2="1" y2="1">
      <stop offset="0%" stop-color="#f8fafc"/>
      <stop offset="100%" stop-color="#e2e8f0"/>
    </linearGradient>
  </defs>
  <rect width="1280" height="720" fill="url(#bg)"/>
  <rect x="24" y="20" width="1232" height="80" rx="16" fill="#ffffff"/>
  <text x="56" y="70" font-family="Segoe UI,Arial,sans-serif" font-size="34" font-weight="700" fill="#0f172a">Hello Cafe - Orders & Billing</text>

  <rect x="24" y="120" width="260" height="576" rx="16" fill="#ffffff"/>
  <text x="50" y="168" font-family="Segoe UI,Arial,sans-serif" font-size="24" font-weight="600" fill="#0f172a">Navigation</text>
  <rect x="50" y="190" width="208" height="44" rx="10" fill="#fee2e2"/>
  <text x="70" y="220" font-family="Segoe UI,Arial,sans-serif" font-size="20" fill="#b91c1c">Orders</text>
  <text x="70" y="270" font-family="Segoe UI,Arial,sans-serif" font-size="20" fill="#334155">Tables</text>
  <text x="70" y="314" font-family="Segoe UI,Arial,sans-serif" font-size="20" fill="#334155">Menu</text>
  <text x="70" y="358" font-family="Segoe UI,Arial,sans-serif" font-size="20" fill="#334155">Reports</text>

  <rect x="304" y="120" width="952" height="576" rx="16" fill="#ffffff"/>
  <text x="340" y="168" font-family="Segoe UI,Arial,sans-serif" font-size="28" font-weight="700" fill="#0f172a">Active Orders</text>

  <rect x="340" y="194" width="880" height="108" rx="14" fill="#f8fafc"/>
  <text x="364" y="238" font-family="Segoe UI,Arial,sans-serif" font-size="22" font-weight="600" fill="#0f172a">#1241 - Table 6</text>
  <text x="364" y="272" font-family="Segoe UI,Arial,sans-serif" font-size="19" fill="#475569">2x Cappuccino, 1x Sandwich</text>
  <rect x="1070" y="222" width="130" height="46" rx="12" fill="#16a34a"/>
  <text x="1135" y="252" text-anchor="middle" font-family="Segoe UI,Arial,sans-serif" font-size="19" font-weight="700" fill="#ffffff">PAID</text>

  <rect x="340" y="320" width="880" height="108" rx="14" fill="#f8fafc"/>
  <text x="364" y="364" font-family="Segoe UI,Arial,sans-serif" font-size="22" font-weight="600" fill="#0f172a">#1242 - Takeaway</text>
  <text x="364" y="398" font-family="Segoe UI,Arial,sans-serif" font-size="19" fill="#475569">1x Mocha, 2x Donut</text>
  <rect x="1050" y="348" width="150" height="46" rx="12" fill="#ea580c"/>
  <text x="1125" y="378" text-anchor="middle" font-family="Segoe UI,Arial,sans-serif" font-size="19" font-weight="700" fill="#ffffff">PENDING</text>

  <rect x="340" y="446" width="880" height="108" rx="14" fill="#f8fafc"/>
  <text x="364" y="490" font-family="Segoe UI,Arial,sans-serif" font-size="22" font-weight="600" fill="#0f172a">#1243 - Delivery</text>
  <text x="364" y="524" font-family="Segoe UI,Arial,sans-serif" font-size="19" fill="#475569">3x Tea, 1x Cookie</text>
  <rect x="1060" y="474" width="140" height="46" rx="12" fill="#2563eb"/>
  <text x="1130" y="504" text-anchor="middle" font-family="Segoe UI,Arial,sans-serif" font-size="19" font-weight="700" fill="#ffffff">BILLING</text>

  <rect x="340" y="574" width="430" height="94" rx="14" fill="#f8fafc"/>
  <text x="364" y="614" font-family="Segoe UI,Arial,sans-serif" font-size="20" fill="#334155">Orders Today: 126</text>
  <text x="364" y="644" font-family="Segoe UI,Arial,sans-serif" font-size="20" fill="#334155">Revenue: NPR 58,200</text>

  <rect x="790" y="574" width="430" height="94" rx="14" fill="#f8fafc"/>
  <text x="814" y="614" font-family="Segoe UI,Arial,sans-serif" font-size="20" fill="#334155">Sync Status: Online</text>
  <text x="814" y="644" font-family="Segoe UI,Arial,sans-serif" font-size="20" fill="#334155">Pending Uploads: 0</text>
</svg>
